<?xml version="1.0" encoding="UTF-8"?>
<svg id="Layer_1" xmlns="http://www.w3.org/2000/svg" viewBox="0 0 70 70">
  <defs>
    <style>
      .cls-1 {
        fill: #fff;
        fill-rule: evenodd;
      }

      .cls-2 {
        fill: #5138cc;
      }
    </style>
  </defs>
  <g id="Character">
    <path class="cls-2" d="M12.69-.12h45.34c7.01,0,12.69,5.63,12.69,12.56v44.87c0,6.94-5.68,12.56-12.69,12.56H12.69c-7.01,0-12.69-5.63-12.69-12.56V12.44C0,5.5,5.68-.12,12.69-.12Z"/>
  </g>
  <path class="cls-1" d="M34.29,44.96h-8.54v-4.98c0-.39-.32-.71-.71-.71h-4.27v-4.27h.61c.39,0,.71-.32.71-.71s-.32-.71-.71-.71h-4.87c-.39,0-.71-.32-.71-.71v-2.85c0-.39.32-.71.71-.71h4.27c.39,0,.71-.32.71-.71s-.32-.71-.71-.71h-4.27c-1.18,0-2.13.96-2.13,2.13v2.85c0,1.18.95,2.13,2.13,2.13h2.85v4.27h-2.85c-1.18,0-2.13.96-2.13,2.13v2.85c0,1.18.95,2.13,2.13,2.13h2.85v4.27h-2.85c-1.18,0-2.13.96-2.13,2.13v2.85c0,1.18.95,2.13,2.13,2.13h36.99c1.18,0,2.13-.96,2.13-2.13v-2.85c0-1.18-.95-2.13-2.13-2.13h-2.85v-4.27h2.85c1.18,0,2.13-.96,2.13-2.13v-2.85c0-1.18-.95-2.13-2.13-2.13h-2.85v-4.27h2.85c1.18,0,2.13-.96,2.13-2.13v-2.85c0-1.18-.95-2.13-2.13-2.13h-5.17c-.39,0-.71.32-.71.71s.32.71.71.71h5.17c.39,0,.71.32.71.71v2.85c0,.39-.32.71-.71.71h-5.69c-.39,0-.71.32-.71.71s.32.71.71.71h1.42v4.27h-4.27c-.39,0-.71.32-.71.71v4.98h-8.54v-.71c0-.39-.32-.71-.71-.71s-.71.32-.71.71v.71ZM34.29,52.07h-8.54v4.27h8.54v-4.27ZM44.25,52.07h-8.54v4.27h8.54v-4.27ZM29.31,46.38v4.27h-8.54v-4.27h8.54ZM40.69,46.38h8.54v4.27h-8.54v-4.27ZM24.33,44.96h-7.82c-.39,0-.71-.32-.71-.71v-2.85c0-.39.32-.71.71-.71h7.82v4.27ZM53.5,44.96h-7.82v-4.27h7.82c.39,0,.71.32.71.71v2.85c0,.39-.32.71-.71.71ZM44.95,18.53c-.05-.35-.35-.6-.7-.6-.35,0-.65.25-.71.59-.37,2.19-1.44,3.86-3.13,5.08-.56-3.98-2.38-7.61-4.84-11.07-.16-.23-.45-.34-.73-.28-.28.06-.49.27-.55.55-.87,4.17-2.16,7.99-4.33,11.07-1.92-1.24-3.12-3-3.52-5.35-.06-.34-.35-.59-.7-.59s-.64.25-.7.59c0,0-1.43,8.62-1.43,12.21,0,6.29,5.1,11.38,11.38,11.38s11.38-5.1,11.38-11.38c0-2.87-1.43-12.2-1.43-12.2ZM43.98,21.69c.42,2.94.98,7.26.98,9.05,0,5.5-4.46,9.96-9.96,9.96s-9.96-4.46-9.96-9.96c0-2.19.55-6.3.96-9.09.83,1.58,2.11,2.84,3.81,3.79.31.17.7.09.91-.19,2.23-2.94,3.64-6.55,4.6-10.54,2.06,3.17,3.5,6.51,3.79,10.17.02.24.16.46.37.57.21.11.47.11.68,0,1.69-.94,2.96-2.19,3.79-3.75,0,0,0,0,0,0ZM35,37.85h0c4.85-.01,7.92-4.5,6.98-9.15-.04-.2-.17-.38-.35-.48-.18-.1-.4-.12-.6-.04-2.43.93-4.93-1.21-4.81-3.73.01-.33-.2-.63-.53-.72-.32-.09-.66.07-.82.36-.62,1.21-1.44,2.55-2.5,3.43-.93.78-2.07,1.17-3.42.64-.2-.08-.42-.06-.6.04-.18.1-.31.28-.35.49-.89,4.61,2.14,9.17,7,9.16Z"/>
</svg>