<svg width="35" height="35" viewBox="0 0 35 35" fill="none" xmlns="http://www.w3.org/2000/svg">
<g clip-path="url(#clip0_479_2)">
<mask id="mask0_479_2" style="mask-type:luminance" maskUnits="userSpaceOnUse" x="0" y="0" width="35" height="35">
<path d="M35 0H0V35H35V0Z" fill="white"/>
</mask>
<g mask="url(#mask0_479_2)">
<mask id="mask1_479_2" style="mask-type:luminance" maskUnits="userSpaceOnUse" x="0" y="0" width="35" height="35">
<path d="M35 0H0V35H35V0Z" fill="white"/>
</mask>
<g mask="url(#mask1_479_2)">
<path d="M27.2819 -0.245117H7.92687C3.47132 -0.245117 -0.140625 3.36683 -0.140625 7.82238V27.1774C-0.140625 31.6329 3.47132 35.2449 7.92687 35.2449H27.2819C31.7374 35.2449 35.3494 31.6329 35.3494 27.1774V7.82238C35.3494 3.36683 31.7374 -0.245117 27.2819 -0.245117Z" fill="#F2EFFF"/>
</g>
</g>
<path d="M18.5258 4.51611C21.9356 4.81006 25.0515 7.04409 26.2273 10.2776C30.4406 12.198 31.3028 17.8223 27.8538 20.8402C26.678 21.8788 24.0716 22.9371 24.3656 21.5849C24.4636 21.1146 25.6786 21.2321 26.972 20.2131C29.5195 18.1946 29.6371 14.2361 27.1875 12.1001C26.6192 11.7473 26.0313 11.3946 25.463 11.0418C23.7385 5.98587 17.6635 3.84982 13.2346 7.04409C10.2951 9.16054 10.1579 12.2568 10.0012 12.5508C9.70722 13.1387 8.86456 12.492 7.33601 13.0407C4.27892 14.1577 3.53424 18.5278 6.29739 20.5267C7.62996 21.4869 8.82537 21.0558 8.5902 21.9964C8.39424 22.8391 6.16021 21.7808 5.35674 21.095C4.31811 20.2131 3.71062 18.9197 3.51465 17.5871V16.6073C3.84779 13.7266 6.17981 11.6885 9.09972 11.7277C9.8052 7.80837 13.313 4.79047 17.2716 4.51611H18.5062H18.5258Z" fill="#6B46F2"/>
<path d="M12.2927 13.0801H21.2288C23.4629 13.3544 24.2859 16.3135 22.5026 17.7049C23.796 18.9395 23.8548 20.6444 22.5026 21.8398C23.5805 22.8393 23.8548 24.3678 22.9142 25.5632C21.6796 27.1113 19.0732 26.3275 17.3095 26.5234C17.3095 26.9938 17.3095 27.4641 17.2899 27.954C19.4847 29.0122 17.7798 31.795 15.9769 30.7759C14.8599 30.1488 15.0559 28.3655 16.2709 27.954C16.2709 27.4837 16.2709 27.0134 16.2513 26.5234C14.5268 26.3471 11.9204 27.0918 10.7054 25.622C9.72556 24.4462 9.96072 22.8001 11.1169 21.8594C9.70596 20.7816 9.78435 18.8415 11.1169 17.7245C9.25524 16.4115 10.0979 13.374 12.3319 13.0997L12.2927 13.0801ZM12.3907 14.1187C10.6662 14.3735 10.6858 16.9602 12.3907 17.215H21.1309C22.875 16.9602 22.8554 14.3539 21.1309 14.1187H12.3907ZM12.3907 18.2536C10.6662 18.5084 10.6858 21.0951 12.3907 21.3499H21.1309C22.875 21.0951 22.8554 18.4888 21.1309 18.2536H12.3907ZM12.3907 22.3885C10.6858 22.6237 10.6466 25.2497 12.4495 25.4848H21.1309C22.875 25.2301 22.8554 22.6237 21.1309 22.3885H12.3907ZM16.6824 28.8947C16.0749 28.973 16.1533 30.0117 16.8392 29.9333C17.4467 29.8549 17.3683 28.8163 16.6824 28.8947Z" fill="#6B46F2"/>
<path d="M12.7645 15.0981H17.1542C17.5853 15.2157 17.6441 16.0192 16.9386 16.1368H12.9605C12.255 16.0192 12.4118 15.1961 12.7449 15.0981H12.7645Z" fill="#6B46F2"/>
<path d="M18.6423 15.0987C19.5241 14.8831 19.5437 16.2941 18.6423 16.0785C18.1915 15.9805 18.2111 15.1966 18.6423 15.0987Z" fill="#6B46F2"/>
<path d="M20.4666 15.0983C21.1917 14.9219 21.3681 15.9018 20.8194 16.0781C20.0943 16.3329 19.8787 15.2355 20.4666 15.0983Z" fill="#6B46F2"/>
<path d="M12.7645 19.2329H17.1542C17.5853 19.3505 17.6441 20.154 16.9386 20.2715H12.9605C12.255 20.154 12.4118 19.3309 12.7449 19.2329H12.7645Z" fill="#6B46F2"/>
<path d="M18.6423 19.2334C19.5241 19.0179 19.5437 20.4288 18.6423 20.2133C18.1915 20.1153 18.2111 19.3314 18.6423 19.2334Z" fill="#6B46F2"/>
<path d="M20.4668 19.2333C21.2115 19.057 21.3291 20.076 20.8196 20.2132C20.0357 20.4091 19.9181 19.3509 20.4668 19.2333Z" fill="#6B46F2"/>
<path d="M12.7645 23.3687H17.1542C17.5853 23.4862 17.6441 24.2897 16.9386 24.4073H12.9605C12.255 24.2897 12.4118 23.4666 12.7449 23.3687H12.7645Z" fill="#6B46F2"/>
<path d="M18.6423 23.3677C19.5241 23.1521 19.5437 24.5631 18.6423 24.3475C18.1915 24.2496 18.2111 23.4657 18.6423 23.3677Z" fill="#6B46F2"/>
<path d="M20.4668 23.3676C21.2115 23.1912 21.3291 24.2103 20.8196 24.3474C20.0357 24.5434 19.9181 23.4852 20.4668 23.3676Z" fill="#6B46F2"/>
<path d="M3.53418 29.5216V29.306C3.63216 29.1885 3.73015 29.0709 3.82813 28.9533C4.25926 28.7573 12.1567 28.9925 13.3913 28.8945C13.9009 29.0709 13.8813 29.8156 13.3913 29.9331H3.9849C3.74974 29.8547 3.65176 29.7372 3.55378 29.5216H3.53418Z" fill="#6B46F2"/>
<path d="M16.6841 28.8948C17.37 28.8165 17.4483 29.8551 16.8408 29.9335C16.155 30.0119 16.0766 28.9732 16.6841 28.8948Z" fill="#6B46F2"/>
<path d="M20.0932 28.8945H29.5584C30.1463 29.1101 30.1463 29.698 29.5584 29.9332H20.0932C19.5837 29.8156 19.6228 29.0121 20.0932 28.8945Z" fill="#6B46F2"/>
</g>
<defs>
<clipPath id="clip0_479_2">
<rect width="35" height="35" fill="white"/>
</clipPath>
</defs>
</svg>
