<?xml version="1.0" encoding="UTF-8"?>
<svg id="Layer_1" xmlns="http://www.w3.org/2000/svg" viewBox="0 0 32 32">
  <defs>
    <style>
      .cls-1 {
        fill: #fff;
      }

      .cls-2 {
        fill: #6b46f2;
      }
    </style>
  </defs>
  <rect class="cls-1" width="32" height="32" rx="7.27" ry="7.27"/>
  <g>
    <path class="cls-1" d="M15.64,21.92c.25,0,.49.01.74.02,0,.71-.01,1.42-.02,2.14-.25,0-.49-.01-.74-.02,0-.71.01-1.42.02-2.14Z"/>
    <g>
      <path class="cls-1" d="M6.46,24.72c.97-.08,1.08,1.35.21,1.48-1.04.15-1.15-1.4-.21-1.48Z"/>
      <path class="cls-1" d="M14.25,24.72h3.51c0,.49.01.97.02,1.46-1.18,0-2.36.01-3.53.02v-1.48Z"/>
      <path class="cls-1" d="M25.38,24.72c1.1-.09,1.07,1.64-.04,1.48-.81-.12-.77-1.41.04-1.48Z"/>
      <path class="cls-1" d="M7.9,25.1h5.67c0,.25.01.49.02.74-1.9,0-3.79.01-5.69.02v-.76Z"/>
      <path class="cls-1" d="M18.44,25.1h5.67c0,.25.01.49.02.74-1.9,0-3.79.01-5.69.02v-.76Z"/>
    </g>
    <g>
      <path class="cls-2" d="M17.19,5.16c1.06.06,5.88.32,6.14,1.54v3.13c-.56.94-.56.16,0,1.1v3.13c-.6.86-.53.19,0,1.06v3.13c-.15.78-2.07,1.03-2.12,1.14.34,3.54-1.11,2.29-4.17,2.52,0,.71-.01,1.42-.02,2.14,1.29-.06,1.26.37,1.38.4h6.14c.87-.74,2.02-.31,2.31.76v.47c-.25,1.04-1.41,1.52-2.26.8h-6.22c-.14.11-.28.23-.42.34h-3.85c-.14-.11-.28-.23-.42-.34h-6.22c-1.09.93-2.66-.19-2.18-1.54.31-.86,1.57-1.14,2.22-.49h6.14c.11-.03.08-.47,1.38-.4,0-.71-.01-1.42-.02-2.14-3.06-.23-4.51,1.02-4.17-2.52-.05-.11-1.97-.37-2.12-1.14v-3.13c.52-.87.63-.16,0-1.06v-3.13c.56-.94.56-.16,0-1.1v-3.13c.26-1.22,5.08-1.49,6.14-1.54h2.37ZM14.84,5.8c-1.23.04-3.43.23-4.57.59-1.07.34-1.21.54-.3.89,1.63.63,5.68.75,7.49.68,1.24-.05,4.39-.31,5.23-1.08-1.39-1.05-5.99-1.14-7.85-1.08ZM9.34,7.7c0,.67-.01,1.34-.02,2.01,1.1.73,3.65.97,5.02,1.04,2.01.09,6.77.03,8.36-1.04,0-.67-.01-1.34-.02-2.01-3.26,1.22-10.07,1.22-13.33,0ZM9.84,10.75c-.87.31-.5.55.47.85,2.52.77,8.87.77,11.38,0,.71-.22,1.34-.48.68-.76-.44-.18-1.27.17-1.78.25-3.28.51-7.51.44-10.75-.34ZM9.34,11.89c0,.67-.01,1.34-.02,2.01,1.08.81,4.19,1.03,5.61,1.08,1.85.06,6.37-.04,7.77-1.08,0-.67-.01-1.34-.02-2.01-3.14,1.25-10.19,1.24-13.33,0ZM9.89,14.94c-.89.31-.57.55.38.85,2.51.79,8.96.79,11.47,0,.89-.28,1.38-.58.25-.85-3.45.95-8.63.89-12.1,0ZM9.34,16.08c0,.68-.01,1.37-.02,2.05.42.32.95.45,1.46.57.14-.67-.23-1.53.32-2.05-.01-.09-1.26-.23-1.76-.57ZM22.67,16.08c-.47.34-1.74.48-1.76.57.55.52.18,1.38.32,2.05.51-.12,1.04-.25,1.46-.57,0-.68-.01-1.37-.02-2.05ZM11.66,17.01c-.08.08-.16.16-.23.23v3.81c.08.08.16.16.23.23h8.68l.23-.23v-3.81l-.23-.23h-8.68ZM15.64,21.92c0,.71-.01,1.42-.02,2.14.25,0,.49.01.74.02,0-.71.01-1.42.02-2.14-.25,0-.49-.01-.74-.02ZM6.46,24.72c-.94.08-.83,1.63.21,1.48.87-.13.76-1.56-.21-1.48ZM14.25,24.72v1.48c1.18,0,2.36-.01,3.53-.02,0-.49-.01-.97-.02-1.46h-3.51ZM25.38,24.72c-.82.07-.85,1.36-.04,1.48,1.12.16,1.14-1.58.04-1.48ZM7.9,25.1v.76c1.9,0,3.79-.01,5.69-.02,0-.25-.01-.49-.02-.74h-5.67ZM18.44,25.1v.76c1.9,0,3.79-.01,5.69-.02,0-.25-.01-.49-.02-.74h-5.67Z"/>
      <path class="cls-2" d="M9.34,7.7c3.26,1.22,10.07,1.22,13.33,0,0,.67.01,1.34.02,2.01-1.59,1.07-6.35,1.13-8.36,1.04-1.36-.06-3.91-.3-5.02-1.04,0-.67.01-1.34.02-2.01Z"/>
      <path class="cls-2" d="M9.34,11.89c3.14,1.24,10.19,1.25,13.33,0,0,.67.01,1.34.02,2.01-1.4,1.04-5.92,1.14-7.77,1.08-1.42-.04-4.53-.27-5.61-1.08,0-.67.01-1.34.02-2.01Z"/>
      <path class="cls-2" d="M9.34,16.08c.5.34,1.74.48,1.76.57-.55.52-.18,1.38-.32,2.05-.51-.12-1.04-.25-1.46-.57,0-.68.01-1.37.02-2.05Z"/>
      <path class="cls-2" d="M22.67,16.08c0,.68.01,1.37.02,2.05-.42.32-.95.45-1.46.57-.14-.67.23-1.53-.32-2.05.01-.09,1.28-.23,1.76-.57Z"/>
      <path class="cls-2" d="M13.23,17.78c.36-.04,1.14.19,1.04.66-.12.53-1.13-.34-1.18.13-.03.21,1.57.33,1.23,1.4-.31.95-2.11.54-1.95-.17.12-.54.75.17,1.12.11.08-.06.16-.13.23-.19.03-.3-1.06-.32-1.23-.89-.14-.48.25-.99.74-1.04Z"/>
      <path class="cls-2" d="M15.98,17.78c1.1-.1,1.94,1.09,1.33,2.05.5.48-.03.96-.44.49-2.36.99-2.77-2.37-.89-2.54ZM16.02,18.41c-.79.11-.79,1.37,0,1.48.58.08.2-.21.19-.28-.02-.12.08-.37.19-.4.31-.09.53.43.49-.15-.03-.4-.48-.71-.87-.66Z"/>
      <path class="cls-2" d="M18.52,17.78c.71-.13.29,1.69.4,2.09.04.07.9-.14.72.47-.08.26-1.26.33-1.35-.04v-2.29l.23-.23Z"/>
    </g>
  </g>
</svg>