<svg width="35" height="35" viewBox="0 0 35 35" fill="none" xmlns="http://www.w3.org/2000/svg">
<g clip-path="url(#clip0_479_2)">
<mask id="mask0_479_2" style="mask-type:luminance" maskUnits="userSpaceOnUse" x="0" y="0" width="35" height="35">
<path d="M35 0H0V35H35V0Z" fill="white"/>
</mask>
<g mask="url(#mask0_479_2)">
<mask id="mask1_479_2" style="mask-type:luminance" maskUnits="userSpaceOnUse" x="0" y="0" width="35" height="35">
<path d="M35 0H0V35H35V0Z" fill="white"/>
</mask>
<g mask="url(#mask1_479_2)">
<path d="M27.2819 -0.245117H7.92687C3.47132 -0.245117 -0.140625 3.36683 -0.140625 7.82238V27.1774C-0.140625 31.6329 3.47132 35.2449 7.92687 35.2449H27.2819C31.7374 35.2449 35.3494 31.6329 35.3494 27.1774V7.82238C35.3494 3.36683 31.7374 -0.245117 27.2819 -0.245117Z" fill="#F2EFFF"/>
</g>
</g>
<path d="M26.2433 3.86208C26.5616 3.84085 26.9012 4.09556 26.9649 4.41394V8.27694C26.8163 8.97738 25.84 8.97738 25.6914 8.27694V4.41394C25.7339 4.18046 26.0098 3.8833 26.2433 3.86208Z" fill="#6B46F2"/>
<path d="M8.35029 5.13604C8.62622 5.07236 9.05072 5.19971 9.13563 5.51809V9.59335C9.00827 10.124 8.05313 10.1877 7.92578 9.52968V5.56054L8.35029 5.13604Z" fill="#6B46F2"/>
<path d="M17.1595 6.34557C23.8879 5.85739 27.0717 14.2626 21.9988 18.3803C17.3293 22.1372 10.2825 18.3167 11.0466 12.2038C11.4286 9.18977 14.1242 6.57905 17.1807 6.3668L17.1595 6.34557ZM17.4991 8.82894C17.0746 8.93506 17.0958 9.65673 17.117 10.0176C15.9284 10.2935 15.1431 11.567 15.8435 12.6707C16.459 13.6046 18.7514 13.7957 18.6665 14.5173L18.242 14.9418C17.2231 15.3876 16.6076 14.39 15.9921 14.5386C15.3341 14.6871 15.2704 15.7908 17.0958 16.2154C16.926 17.8285 18.5603 17.8497 18.3269 16.2366C19.4518 15.8333 20.3433 14.772 19.6428 13.5834C18.9848 12.4585 15.9072 12.3099 17.0321 11.376C18.0722 10.5057 19.3669 12.3736 19.8126 11.3548C20.1735 10.5482 18.8787 10.1661 18.3269 9.97511C18.4118 9.3808 18.2632 8.63791 17.4991 8.85016V8.82894Z" fill="#6B46F2"/>
<path d="M28.5993 6.34539C28.9389 6.26049 29.321 6.53642 29.3846 6.72745V10.8664C29.2573 11.397 28.3022 11.3546 28.1748 10.8027V6.7699L28.5993 6.34539Z" fill="#6B46F2"/>
<path d="M5.88811 8.82887C6.27017 8.74397 6.65223 8.97745 6.7159 9.38073V13.1801C6.58855 13.9017 5.59096 13.9017 5.44238 13.1801V9.38073C5.48483 9.21093 5.69709 8.87132 5.86689 8.82887H5.88811Z" fill="#6B46F2"/>
<path d="M4.72178 22.1582H7.01412C7.22637 22.2007 7.45985 22.4978 7.5023 22.7101V30.0116C7.45985 30.2026 7.18392 30.521 7.01412 30.5634H4.72178C4.5732 30.521 4.27605 30.2238 4.2336 30.0752C4.1487 29.7144 4.1487 23.0072 4.2336 22.6464C4.27605 22.4766 4.55198 22.2007 4.72178 22.1582Z" fill="#6B46F2"/>
<path d="M13.5291 22.1579H14.5691C16.5431 22.7947 18.517 23.4315 20.491 24.047C21.2127 24.4291 21.0641 25.3417 20.5971 25.5964C19.8542 25.9997 16.6704 24.7687 16.1186 25.1932C15.8426 25.3842 15.7577 26.0634 16.3521 26.2969C17.477 26.5091 18.6232 26.7214 19.7481 26.9336C20.3636 26.9761 21.0004 26.9124 21.4674 26.4667C22.6984 26.403 28.8325 25.2568 29.342 25.363C29.9363 25.4903 30.382 26.5304 29.5118 27.0822C25.7549 28.3345 21.998 29.5656 18.2411 30.8179C15.8426 31.2212 13.6777 28.5043 11.3853 28.6317C10.4939 28.7802 9.62363 28.9288 8.73216 29.0986C8.73216 27.3157 8.73216 25.5115 8.71094 23.7286C10.3028 23.198 11.916 22.6674 13.5079 22.1367L13.5291 22.1579Z" fill="#6B46F2"/>
</g>
<defs>
<clipPath id="clip0_479_2">
<rect width="35" height="35" fill="white"/>
</clipPath>
</defs>
</svg>
