<?xml version="1.0" encoding="UTF-8"?>
<svg id="Layer_1" xmlns="http://www.w3.org/2000/svg" viewBox="0 0 32 32">
  <defs>
    <style>
      .cls-1 {
        fill: #fff;
      }

      .cls-2 {
        fill: #6b46f2;
      }
    </style>
  </defs>
  <rect class="cls-1" width="32" height="32" rx="7.27" ry="7.27"/>
  <g>
    <path class="cls-2" d="M4.14,21.53h-.8v-8.47c.68-.21,1.34-.32,2-.32.48,0,.91.08,1.3.22.39.15.72.36,1,.62.28.27.49.58.64.95.15.36.22.76.22,1.19,0,.52-.09.97-.27,1.34-.18.37-.41.68-.71.92-.29.24-.62.42-1,.53s-.76.17-1.14.17c-.21,0-.42-.02-.62-.04-.2-.03-.4-.08-.61-.13v3.02h0ZM7.56,15.71c0-.68-.19-1.22-.56-1.64-.38-.42-.91-.62-1.59-.62-.22,0-.43.01-.64.04-.21.03-.42.08-.62.15v4.13c.19.06.38.12.58.16s.39.06.58.06c.69,0,1.24-.2,1.65-.59.4-.39.61-.95.61-1.68"/>
    <rect class="cls-2" x="10.12" y="10.47" width=".82" height="8.17"/>
    <path class="cls-2" d="M17.61,17.78c-.27.3-.59.52-.95.67-.36.15-.79.23-1.3.23-.47,0-.88-.08-1.23-.24s-.64-.37-.88-.65c-.23-.27-.41-.58-.52-.93s-.17-.72-.17-1.11c0-.52.07-.96.21-1.34.14-.38.33-.69.57-.94.24-.25.52-.44.84-.56s.66-.18,1.01-.18c.86,0,1.5.26,1.94.79.44.52.64,1.29.63,2.29h-4.38c.02.66.21,1.19.57,1.58.36.39.84.58,1.46.58.34,0,.65-.06.93-.17s.53-.29.76-.54l.49.52ZM16.95,15.14c0-.24-.04-.47-.11-.68s-.18-.39-.32-.54c-.14-.15-.32-.27-.53-.36-.22-.09-.47-.13-.76-.13s-.55.04-.76.13c-.21.09-.38.2-.51.35-.12.14-.24.32-.35.53-.11.21-.17.44-.2.69h3.54Z"/>
    <path class="cls-2" d="M23.12,14.18c-.2-.26-.42-.44-.66-.56-.24-.12-.52-.18-.84-.18-.42,0-.71.08-.88.22-.17.15-.25.33-.25.56,0,.16.04.29.12.4s.18.2.31.28c.12.08.27.15.44.2.17.06.34.12.52.17.22.07.44.15.66.23.22.08.42.19.6.32s.33.29.44.48c.12.19.17.43.17.72,0,.27-.06.5-.17.71s-.27.39-.47.53c-.2.15-.43.25-.69.33-.27.08-.55.11-.85.11-.46,0-.88-.08-1.24-.23-.36-.15-.7-.4-1.01-.75l.64-.56c.42.54.97.82,1.65.82.44,0,.76-.08.98-.24s.32-.36.32-.6c0-.18-.04-.33-.12-.45s-.18-.22-.32-.31c-.13-.08-.29-.16-.47-.22-.18-.06-.36-.12-.56-.17-.22-.06-.44-.13-.65-.21-.22-.08-.41-.18-.58-.3s-.31-.28-.42-.46c-.11-.19-.16-.42-.16-.71,0-.52.19-.91.56-1.19.37-.28.86-.42,1.45-.42.42,0,.8.07,1.13.21.33.14.64.39.95.73l-.59.56h-.01Z"/>
    <path class="cls-2" d="M25.29,10.48h.82v8.16h-.82v-8.16ZM26.1,15.63l2.8-2.83h1.1l-2.87,2.8,2.86,3.04h-1.13l-2.75-3.01Z"/>
    <rect class="cls-2" x="8.04" y="20.76" width="4.92" height=".77"/>
  </g>
</svg>