<svg width="35" height="35" viewBox="0 0 35 35" fill="none" xmlns="http://www.w3.org/2000/svg">
<g clip-path="url(#clip0_479_69)">
<mask id="mask0_479_69" style="mask-type:luminance" maskUnits="userSpaceOnUse" x="0" y="0" width="35" height="35">
<path d="M35 0H0V35H35V0Z" fill="white"/>
</mask>
<g mask="url(#mask0_479_69)">
<mask id="mask1_479_69" style="mask-type:luminance" maskUnits="userSpaceOnUse" x="0" y="0" width="35" height="35">
<path d="M35 0H0V35H35V0Z" fill="white"/>
</mask>
<g mask="url(#mask1_479_69)">
<mask id="mask2_479_69" style="mask-type:luminance" maskUnits="userSpaceOnUse" x="0" y="0" width="35" height="35">
<path d="M35 0H0V35H35V0Z" fill="white"/>
</mask>
<g mask="url(#mask2_479_69)">
<path d="M27.2819 -0.245117H7.92687C3.47132 -0.245117 -0.140625 3.36683 -0.140625 7.82238V27.1774C-0.140625 31.6329 3.47132 35.2449 7.92687 35.2449H27.2819C31.7374 35.2449 35.3494 31.6329 35.3494 27.1774V7.82238C35.3494 3.36683 31.7374 -0.245117 27.2819 -0.245117Z" fill="#F2EFFF"/>
</g>
</g>
</g>
<path fill-rule="evenodd" clip-rule="evenodd" d="M7.1367 21.2016C6.96097 21.0898 6.73733 21.1377 6.6255 21.2974C6.54563 21.4252 6.54563 21.585 6.6255 21.7128H6.64148C6.64148 21.7128 6.80123 21.8246 6.8811 21.8246C6.97695 21.8246 7.05682 21.7927 7.12072 21.7128C7.31242 21.7128 7.47217 21.6489 7.47217 21.4572C7.47217 21.2655 7.31242 21.1058 7.12072 21.1058V21.2016H7.1367ZM7.1367 21.2016C6.96097 21.0898 6.73733 21.1377 6.6255 21.2974C6.54563 21.4252 6.54563 21.585 6.6255 21.7128H6.64148C6.64148 21.7128 6.80123 21.8246 6.8811 21.8246C6.97695 21.8246 7.05682 21.7927 7.12072 21.7128C7.31242 21.7128 7.47217 21.6489 7.47217 21.4572C7.47217 21.2655 7.31242 21.1058 7.12072 21.1058V21.2016H7.1367ZM29.9487 10.5784C29.9487 10.5784 29.9008 10.4665 29.8688 10.4346L27.1052 7.67096L26.8336 7.91058C26.7697 7.99046 26.6738 8.05436 26.562 8.10228L26.2106 8.1502C26.0668 8.1502 25.939 8.10228 25.8112 8.03838C25.6834 7.99046 25.5716 7.92656 25.4757 7.83071C25.3799 7.73486 25.3 7.62304 25.2521 7.49524C25.2042 7.36744 25.1722 7.23964 25.1722 7.09587C25.1722 6.96807 25.1722 6.84027 25.2201 6.72845L25.3799 6.45688L25.6515 6.21726L25.5396 6.13738L24.9805 5.56229C24.2457 4.7955 23.1115 3.62934 22.8559 3.4696L22.7281 3.38972L22.5683 3.3418L22.4086 3.38972L22.2808 3.4696L4.59671 21.1856C4.59671 21.1856 4.53281 21.2815 4.51683 21.3294C4.50086 21.3773 4.48488 21.4252 4.46891 21.4732C4.46891 21.5371 4.46891 21.585 4.51683 21.6329C4.53281 21.6808 4.56476 21.7288 4.59671 21.7767L4.86828 22.0483L3.43055 23.486C3.31872 23.6138 3.31872 23.8055 3.43055 23.9333L4.62866 25.1314C4.74048 25.2272 4.90023 25.2272 4.99608 25.1314L5.21972 24.9237C5.21972 24.9237 5.3635 24.8119 5.44337 24.8119C5.52324 24.8119 5.60312 24.8598 5.66702 24.9237C5.77884 25.0515 5.77884 25.2432 5.66702 25.371L5.44337 25.5787C5.34752 25.6905 5.34752 25.8503 5.44337 25.9461L9.38914 29.8759C9.50096 30.0197 9.69266 30.0357 9.82046 29.9398C9.83643 29.9238 9.86838 29.9079 9.88436 29.8759L11.3061 28.4701L11.5457 28.7097L11.6895 28.7896L11.8333 28.8375L11.993 28.7896L12.1368 28.7097L29.8528 10.9937C29.8528 10.9937 29.9167 10.8979 29.9327 10.8499C29.9487 10.802 29.9647 10.7381 29.9806 10.6902C29.9806 10.6423 29.9647 10.5943 29.9327 10.5464L29.9487 10.5784ZM6.30601 20.8821C6.46576 20.7224 6.67343 20.6265 6.89707 20.6425C7.12072 20.6425 7.32839 20.7224 7.47217 20.8821C7.63191 21.0419 7.72776 21.2495 7.71179 21.4732C7.71179 21.6968 7.61594 21.9045 7.47217 22.0483C7.32839 22.208 7.10475 22.3039 6.89707 22.2879C6.67343 22.2879 6.44978 22.208 6.30601 22.0483C6.14626 21.9045 6.06639 21.6808 6.06639 21.4732C6.06639 21.2655 6.14626 21.0259 6.30601 20.8821ZM9.62876 29.4126L9.11757 28.9174L10.0281 28.0069L9.67669 27.6394L8.76612 28.55L8.31883 28.1187L9.22939 27.2081L8.86197 26.8407L7.98336 27.7513L7.53607 27.3199L8.44663 26.4094L8.07921 26.042L7.16865 26.9525L6.6894 26.4733L7.59996 25.5627L7.24852 25.1953L6.33796 26.1059L6.00249 25.7704V25.7225C6.16223 25.5787 6.25808 25.355 6.24211 25.1474C6.24211 24.9237 6.16223 24.7001 6.00249 24.5563C5.85871 24.3966 5.63507 24.3167 5.42739 24.3167C5.21972 24.3167 4.9801 24.3966 4.83633 24.5563L4.7884 24.6042L4.58073 24.3966L5.49129 23.486L5.13985 23.1186L4.22929 24.0291L3.92577 23.7256L5.2357 22.4157L10.9387 28.1347L9.64474 29.4286L9.62876 29.4126ZM26.3863 11.7286L12.8397 25.2432C12.8397 25.2432 12.6799 25.3391 12.6001 25.2752C12.6001 25.2752 12.6001 25.2752 12.5841 25.2752L8.15908 20.8342C8.15908 20.8342 8.09518 20.6585 8.15908 20.5946L21.6897 7.04795C21.6897 7.04795 21.8654 6.98405 21.9293 7.04795L26.3703 11.473C26.3703 11.473 26.4342 11.6487 26.3703 11.7126L26.3863 11.7286ZM6.65745 21.7288C6.65745 21.7288 6.8172 21.8406 6.89707 21.8406C6.99292 21.8406 7.0728 21.8086 7.1367 21.7288C7.28047 21.585 7.28047 21.3613 7.1367 21.2176C6.96097 21.1058 6.73733 21.1537 6.6255 21.3134C6.54563 21.4412 6.54563 21.601 6.6255 21.7288H6.64148H6.65745Z" fill="#6B46F2"/>
<path d="M12.2916 19.5898L13.7817 21.0825L13.6068 21.2571L11.6235 20.8971L11.6089 20.9116L12.7788 22.0836L12.5981 22.264L11.108 20.7714L11.2829 20.5968L13.2721 20.9568L13.2866 20.9422L12.1138 19.7673L12.2916 19.5898ZM12.7146 19.1676L14.412 19.9818L14.4295 19.9643L13.6183 18.2655L13.8078 18.0763L14.7498 20.1161L14.5632 20.3023L12.5251 19.3568L12.7146 19.1676ZM14.0403 17.8442L14.256 17.6288L16.0002 18.3615L16.0177 18.344L15.2881 16.5986L15.5038 16.3833L16.9939 17.8759L16.8248 18.0447L15.6927 16.9106L15.6781 16.9252L16.3437 18.5249L16.1805 18.6879L14.5819 18.0194L14.5674 18.034L15.6994 19.1681L15.5304 19.3369L14.0403 17.8442ZM17.8256 17.0922C17.7177 17.1999 17.6009 17.2689 17.4752 17.2994C17.3494 17.3289 17.2224 17.3218 17.0943 17.278C16.9662 17.2332 16.8449 17.1535 16.7304 17.0388C16.616 16.9241 16.536 16.8022 16.4904 16.673C16.4449 16.5429 16.4353 16.4157 16.4616 16.2914C16.488 16.1662 16.5517 16.0531 16.6527 15.9522C16.711 15.894 16.7783 15.8463 16.8546 15.809C16.9308 15.7717 17.0141 15.7516 17.1044 15.7487C17.1942 15.7454 17.2886 15.7657 17.3876 15.8094C17.4866 15.8532 17.5882 15.9273 17.6925 16.0318L17.7653 16.1047L16.9023 16.9661L16.7539 16.8174L17.4419 16.1306C17.3789 16.0675 17.31 16.0237 17.2353 15.9994C17.161 15.9745 17.0865 15.9708 17.0117 15.9882C16.9374 16.0052 16.8692 16.0447 16.807 16.1068C16.7385 16.1752 16.6962 16.2513 16.6801 16.3353C16.664 16.4183 16.6695 16.5001 16.6966 16.5807C16.7237 16.6613 16.7681 16.7325 16.8297 16.7942L16.9286 16.8933C17.013 16.9779 17.0991 17.035 17.187 17.0647C17.2748 17.0934 17.3603 17.0969 17.4433 17.0751C17.5259 17.0528 17.6019 17.007 17.6714 16.9377C17.7165 16.8926 17.7511 16.8455 17.7749 16.7965C17.7987 16.7465 17.8111 16.6953 17.8122 16.6429C17.8127 16.59 17.8008 16.5368 17.7766 16.4834L17.9893 16.3641C18.0281 16.4379 18.0482 16.5169 18.0496 16.6008C18.0505 16.6843 18.0324 16.7683 17.9955 16.8527C17.958 16.9367 17.9014 17.0165 17.8256 17.0922ZM18.8268 13.8111C18.7443 13.7459 18.6516 13.724 18.5487 13.7453C18.4458 13.7665 18.3491 13.8223 18.2587 13.9125C18.1927 13.9785 18.1455 14.0469 18.1173 14.1177C18.0896 14.1881 18.0805 14.2558 18.0902 14.3209C18.1003 14.3855 18.1291 14.4416 18.1767 14.4892C18.2164 14.529 18.2601 14.5538 18.3077 14.5636C18.3553 14.5723 18.4036 14.5712 18.4526 14.56C18.5012 14.5484 18.548 14.5322 18.5932 14.5114C18.6379 14.4901 18.6777 14.4692 18.7127 14.4489L18.905 14.3383C18.9541 14.3097 19.0114 14.2807 19.0769 14.2511C19.143 14.2211 19.2134 14.1998 19.2882 14.1872C19.3629 14.1737 19.4387 14.1767 19.5154 14.1961C19.592 14.2156 19.6653 14.2604 19.7352 14.3303C19.8157 14.411 19.8673 14.505 19.89 14.6123C19.9132 14.7191 19.9037 14.832 19.8613 14.9509C19.8195 15.0693 19.7412 15.1857 19.6265 15.3002C19.5196 15.4069 19.4099 15.4821 19.2972 15.5256C19.185 15.5688 19.0758 15.5818 18.9695 15.5647C18.8637 15.5471 18.7671 15.5004 18.6798 15.4246L18.8664 15.2384C18.9275 15.2899 18.993 15.3176 19.0629 15.3215C19.1328 15.3245 19.2022 15.3095 19.2712 15.2766C19.3402 15.2427 19.4043 15.1961 19.4636 15.1369C19.5326 15.0681 19.5834 14.995 19.616 14.9179C19.6481 14.8402 19.66 14.7652 19.6518 14.6929C19.6432 14.6201 19.6117 14.5564 19.5573 14.502C19.5079 14.4525 19.4538 14.426 19.395 14.4225C19.3363 14.4191 19.2746 14.4302 19.21 14.4558C19.1454 14.4815 19.0796 14.5133 19.0126 14.5511L18.7765 14.6819C18.6265 14.7648 18.4864 14.8091 18.3563 14.8148C18.2261 14.8205 18.1109 14.7731 18.0105 14.6725C17.9271 14.589 17.8769 14.4935 17.86 14.3862C17.8431 14.2779 17.8558 14.1682 17.8982 14.0571C17.9405 13.945 18.0093 13.8414 18.1045 13.7463C18.2007 13.6503 18.3034 13.5822 18.4127 13.542C18.5215 13.5013 18.6273 13.4888 18.7302 13.5044C18.8336 13.5195 18.9241 13.5636 19.0017 13.6364L18.8268 13.8111ZM20.1356 12.5045C20.0532 12.4394 19.9604 12.4175 19.8575 12.4388C19.7546 12.46 19.6579 12.5158 19.5675 12.606C19.5015 12.672 19.4543 12.7404 19.4261 12.8112C19.3984 12.8816 19.3893 12.9493 19.399 13.0144C19.4091 13.0789 19.4379 13.135 19.4855 13.1826C19.5253 13.2225 19.5689 13.2473 19.6165 13.257C19.6641 13.2658 19.7124 13.2646 19.7614 13.2535C19.81 13.2419 19.8568 13.2257 19.902 13.2049C19.9467 13.1835 19.9865 13.1627 20.0215 13.1423L20.2138 13.0318C20.2629 13.0032 20.3202 12.9741 20.3857 12.9446C20.4518 12.9145 20.5222 12.8932 20.597 12.8807C20.6718 12.8672 20.7475 12.8701 20.8242 12.8896C20.9009 12.9091 20.9741 12.9538 21.044 13.0238C21.1245 13.1045 21.1761 13.1984 21.1988 13.3058C21.222 13.4126 21.2125 13.5254 21.1701 13.6443C21.1283 13.7628 21.05 13.8792 20.9353 13.9937C20.8285 14.1004 20.7187 14.1755 20.606 14.2191C20.4938 14.2622 20.3846 14.2752 20.2783 14.2582C20.1725 14.2406 20.0759 14.1939 19.9886 14.1181L20.1752 13.9318C20.2363 13.9834 20.3018 14.0111 20.3717 14.015C20.4416 14.018 20.511 14.003 20.58 13.9701C20.649 13.9361 20.7131 13.8896 20.7724 13.8304C20.8414 13.7615 20.8922 13.6885 20.9248 13.6114C20.9569 13.5337 20.9688 13.4587 20.9606 13.3864C20.952 13.3135 20.9205 13.2499 20.8661 13.1955C20.8167 13.1459 20.7626 13.1194 20.7038 13.116C20.6451 13.1125 20.5834 13.1237 20.5188 13.1493C20.4542 13.175 20.3884 13.2067 20.3214 13.2445L20.0853 13.3754C19.9353 13.4583 19.7952 13.5026 19.6651 13.5083C19.535 13.514 19.4197 13.4666 19.3193 13.366C19.2359 13.2824 19.1857 13.187 19.1688 13.0797C19.1519 12.9714 19.1646 12.8617 19.207 12.7506C19.2493 12.6385 19.3181 12.5349 19.4133 12.4398C19.5095 12.3438 19.6123 12.2757 19.7215 12.2355C19.8303 12.1948 19.9361 12.1823 20.039 12.1979C20.1424 12.213 20.2329 12.257 20.3105 12.3299L20.1356 12.5045ZM22.2063 12.6726L21.7457 13.1324L20.2556 11.6397L20.7367 11.1595C20.8815 11.015 21.0352 10.9212 21.1979 10.8781C21.36 10.8346 21.5241 10.841 21.6901 10.8975C21.8556 10.9535 22.0155 11.0587 22.1697 11.2132C22.3249 11.3687 22.4309 11.5302 22.4875 11.6977C22.5437 11.8648 22.5489 12.0313 22.5031 12.1973C22.4568 12.3628 22.3579 12.5212 22.2063 12.6726ZM21.7664 12.7916L22.0346 12.5238C22.158 12.4006 22.2365 12.2747 22.2701 12.1461C22.3037 12.0175 22.2966 11.8893 22.2486 11.7616C22.2007 11.6339 22.116 11.5093 21.9948 11.3878C21.8745 11.2673 21.7513 11.1832 21.6251 11.1355C21.4984 11.0874 21.3727 11.079 21.2479 11.1105C21.1226 11.1414 21.0017 11.2151 20.8851 11.3315L20.5964 11.6196L21.7664 12.7916Z" fill="#6B46F2"/>
</g>
<defs>
<clipPath id="clip0_479_69">
<rect width="35" height="35" fill="white"/>
</clipPath>
</defs>
</svg>
