<svg width="35" height="35" viewBox="0 0 35 35" fill="none" xmlns="http://www.w3.org/2000/svg">
<g clip-path="url(#clip0_347_24)">
<mask id="mask0_347_24" style="mask-type:luminance" maskUnits="userSpaceOnUse" x="0" y="0" width="35" height="35">
<path d="M35 0H0V35H35V0Z" fill="white"/>
</mask>
<g mask="url(#mask0_347_24)">
<path d="M27.2824 -0.245117H7.92736C3.47181 -0.245117 -0.140137 3.36683 -0.140137 7.82238V27.1774C-0.140137 31.6329 3.47181 35.2449 7.92736 35.2449H27.2824C31.7379 35.2449 35.3499 31.6329 35.3499 27.1774V7.82238C35.3499 3.36683 31.7379 -0.245117 27.2824 -0.245117Z" fill="#F2EFFF"/>
</g>
<path d="M21.0098 8H12.4598C9.49408 8 7.08984 10.4042 7.08984 13.37V21.92C7.08984 24.8858 9.49408 27.29 12.4598 27.29H21.0098C23.9756 27.29 26.3798 24.8858 26.3798 21.92V13.37C26.3798 10.4042 23.9756 8 21.0098 8Z" fill="#6B46F2"/>
<path d="M20.75 23.0101H17.42V21.6201H20.75V23.0101ZM26.38 14.7601H7V13.3701H26.37V14.7601H26.38Z" fill="#EAE5FF"/>
<path d="M17.03 11.9804C17.4718 11.9804 17.83 11.6222 17.83 11.1804C17.83 10.7385 17.4718 10.3804 17.03 10.3804C16.5882 10.3804 16.23 10.7385 16.23 11.1804C16.23 11.6222 16.5882 11.9804 17.03 11.9804Z" fill="#EAE5FF"/>
<path d="M19.6101 11.9804C20.0519 11.9804 20.4101 11.6222 20.4101 11.1804C20.4101 10.7385 20.0519 10.3804 19.6101 10.3804C19.1682 10.3804 18.8101 10.7385 18.8101 11.1804C18.8101 11.6222 19.1682 11.9804 19.6101 11.9804Z" fill="#EAE5FF"/>
<path d="M22.1999 11.9804C22.6417 11.9804 22.9999 11.6222 22.9999 11.1804C22.9999 10.7385 22.6417 10.3804 22.1999 10.3804C21.7581 10.3804 21.3999 10.7385 21.3999 11.1804C21.3999 11.6222 21.7581 11.9804 22.1999 11.9804Z" fill="#EAE5FF"/>
<path d="M13.0501 23.01C12.8601 23.01 12.6701 22.93 12.5401 22.78C12.2801 22.5 12.3001 22.06 12.5801 21.8L14.4101 20.13L12.5801 18.46C12.3001 18.2 12.2801 17.76 12.5401 17.48C12.8001 17.2 13.2401 17.18 13.5201 17.44L15.9101 19.63C16.0501 19.76 16.1401 19.95 16.1401 20.14C16.1401 20.33 16.0601 20.52 15.9101 20.65L13.5201 22.84C13.3901 22.96 13.2201 23.02 13.0501 23.02V23.01Z" fill="#EAE5FF"/>
</g>
<defs>
<clipPath id="clip0_347_24">
<rect width="35" height="35" fill="white"/>
</clipPath>
</defs>
</svg>
