<svg width="35" height="35" viewBox="0 0 35 35" fill="none" xmlns="http://www.w3.org/2000/svg">
<g clip-path="url(#clip0_479_2)">
<mask id="mask0_479_2" style="mask-type:luminance" maskUnits="userSpaceOnUse" x="0" y="0" width="35" height="35">
<path d="M35 0H0V35H35V0Z" fill="white"/>
</mask>
<g mask="url(#mask0_479_2)">
<mask id="mask1_479_2" style="mask-type:luminance" maskUnits="userSpaceOnUse" x="0" y="0" width="35" height="35">
<path d="M35 0H0V35H35V0Z" fill="white"/>
</mask>
<g mask="url(#mask1_479_2)">
<path d="M27.2819 -0.245117H7.92687C3.47132 -0.245117 -0.140625 3.36683 -0.140625 7.82238V27.1774C-0.140625 31.6329 3.47132 35.2449 7.92687 35.2449H27.2819C31.7374 35.2449 35.3494 31.6329 35.3494 27.1774V7.82238C35.3494 3.36683 31.7374 -0.245117 27.2819 -0.245117Z" fill="#F2EFFF"/>
</g>
</g>
<path d="M11.0361 12.7929C11.0361 12.7929 11.0361 12.6938 11.0692 12.6773C11.6638 11.3062 12.5889 10.0839 13.7286 9.12579C14.8023 8.25032 16.0577 7.63913 17.4122 7.30877C18.4364 7.06099 19.4936 6.9784 20.5507 7.07751C21.5419 7.1601 22.5164 7.39136 23.4415 7.77128C24.9942 8.38246 26.3652 9.35705 27.4554 10.6125C28.3309 11.6201 29.0082 12.7929 29.4211 14.0648C29.8341 15.2376 30.0158 16.4765 29.9993 17.7319C29.9662 18.9047 29.702 20.0775 29.2394 21.1677C28.2318 23.5133 26.58 25.2973 24.383 26.5858C22.9624 27.4447 21.3932 27.9898 19.7413 28.2046C18.2216 28.3863 16.702 28.2872 15.2318 27.8577C13.0349 27.263 11.0692 26.0407 9.56599 24.3393C8.21148 22.8361 7.28645 21.0025 6.90653 19.0038C6.84045 18.723 6.7909 18.4091 6.74134 18.0953H4.89128C4.89128 18.0953 4.72609 18.1283 4.66002 18.0457C4.59395 17.9631 8.44274 12.5451 8.65748 12.3304L8.77311 12.4625L10.6892 15.1881L12.0438 17.1042L12.6715 17.9797C12.6054 18.1118 12.4732 18.0953 12.3741 18.0953H10.7223L10.6727 18.1283C10.6727 18.1283 10.6727 18.244 10.6727 18.2935C10.7884 19.3177 11.1022 20.3088 11.6143 21.1842C12.5393 22.803 13.9929 24.0584 15.7108 24.7522C16.8837 25.2643 18.1721 25.479 19.444 25.3964C22.0044 25.2478 24.3995 24.0584 26.0844 22.1258C27.1581 20.986 27.8519 19.5324 28.0831 17.9631C28.2153 17.0051 28.1988 16.014 27.9675 15.0724C27.505 12.7929 26.167 10.7776 24.2178 9.47268C22.6321 8.36595 20.7159 7.80432 18.7833 7.87039C16.0577 7.93647 13.8773 9.0432 12.1594 11.141C11.7795 11.6201 11.4491 12.1321 11.1683 12.6773L11.0527 12.8424L11.0196 12.8094L11.0361 12.7929Z" fill="#6B46F2"/>
<path d="M25.209 11.1237L20.3526 16.806L19.5267 17.7641C19.2294 18.1275 18.7008 18.1771 18.3539 17.8797C18.2217 17.7641 18.1226 17.6154 18.0731 17.4337C17.9574 17.1199 18.0731 16.773 18.3374 16.5583L18.932 16.0957L25.0273 11.1732L25.1595 11.0576L25.1925 11.0907L25.209 11.1237Z" fill="#6B46F2"/>
<path d="M18.8496 8.99316H19.6755C19.7416 9.53827 19.7416 10.0999 19.6755 10.645C19.3947 10.645 19.1139 10.645 18.8496 10.645V8.99316Z" fill="#6B46F2"/>
<path d="M27.0581 16.3604V17.1863H25.4063C25.3732 16.9055 25.4063 16.6412 25.4063 16.3604C25.9679 16.3109 26.513 16.3109 27.0746 16.3604H27.0581Z" fill="#6B46F2"/>
<path d="M24.4999 22.5552L23.3105 21.3659L23.8887 20.8208L25.0615 22.0101L24.5164 22.5552H24.4999Z" fill="#6B46F2"/>
<path d="M13.4814 21.9604L14.6543 20.7876L15.2324 21.4153L14.0926 22.5551C13.8779 22.3734 13.6797 22.1751 13.498 21.9604H13.4814Z" fill="#6B46F2"/>
<path d="M15.9082 9.73702L16.7176 9.39014C16.9323 9.90221 17.1306 10.3978 17.3618 10.9429L16.5524 11.2898L15.9082 9.73702Z" fill="#6B46F2"/>
<path d="M15.2323 12.1322L14.6377 12.7269L13.4648 11.5706L14.0595 10.9429L15.2323 12.1157V12.1322Z" fill="#6B46F2"/>
<path d="M13.4815 18.772L13.8284 19.5483L12.2922 20.2091L11.9453 19.4327L13.4815 18.772Z" fill="#6B46F2"/>
<path d="M16.4551 24.0252L15.6787 23.6618L16.3725 22.1421C16.6368 22.2412 16.8846 22.3733 17.1489 22.489L16.4551 24.0252Z" fill="#6B46F2"/>
<path d="M24.7811 19.4654C24.8967 19.2011 24.9958 18.9699 25.0949 18.7056C25.6235 18.8873 26.1191 19.1185 26.6477 19.3333C26.532 19.581 26.4494 19.8453 26.3008 20.1096L24.748 19.4654H24.7811Z" fill="#6B46F2"/>
<path d="M18.8496 22.8853H19.6755C19.7251 23.4304 19.7416 23.9755 19.6755 24.5206H18.8496V22.8853Z" fill="#6B46F2"/>
<path d="M22.8637 9.85169L22.1699 11.3879L21.3936 11.0245L22.0873 9.48828L22.8637 9.85169Z" fill="#6B46F2"/>
<path d="M26.2822 13.3213L26.6291 14.0811C26.117 14.3454 25.6215 14.5271 25.0764 14.7584L24.7295 13.982C25.225 13.7508 25.7371 13.536 26.2822 13.3213Z" fill="#6B46F2"/>
<path d="M21.8552 24.1076C21.6404 23.5956 21.4257 23.1 21.2109 22.5549L21.9873 22.208L22.6315 23.7607L21.8552 24.1076Z" fill="#6B46F2"/>
<path d="M11.8955 14.1968L12.2424 13.4204L13.7951 14.0481L13.4813 14.8575L11.9285 14.2133L11.8955 14.1968Z" fill="#6B46F2"/>
</g>
<defs>
<clipPath id="clip0_479_2">
<rect width="35" height="35" fill="white"/>
</clipPath>
</defs>
</svg>
