<?xml version="1.0" encoding="UTF-8"?>
<svg id="Layer_1" xmlns="http://www.w3.org/2000/svg" viewBox="0 0 32 32">
  <defs>
    <style>
      .cls-1 {
        fill: #fff;
      }

      .cls-2 {
        fill: #6b46f2;
      }
    </style>
  </defs>
  <rect class="cls-1" width="32" height="32" rx="7.27" ry="7.27"/>
  <g>
    <path class="cls-2" d="M26.77,3.67c0,3.76.02,7.52.02,11.27-4.22.08-8.45.16-12.67.24V6.17c4.18-.84,8.37-1.67,12.55-2.51h.1Z"/>
    <path class="cls-2" d="M14.13,16.82c4.22.08,8.45.16,12.67.24,0,3.73.02,7.47.02,11.2-.04.02-.08.05-.12.07-4.18-.84-8.35-1.67-12.53-2.51l-.07-.07c0-2.98.02-5.96.02-8.94Z"/>
    <g>
      <path class="cls-2" d="M12.91,6.56s.08.02.12.02v8.58l-.07.07c-2.59.03-5.17.06-7.76.1,0-2.38-.02-4.77-.02-7.15.09-.04.18-.08.26-.12,2.49-.5,4.98-1,7.47-1.49Z"/>
      <path class="cls-2" d="M5.25,16.67c2.57.03,5.14.06,7.71.1l.07.07c0,2.87-.02,5.73-.02,8.6-2.59-.52-5.19-1.04-7.78-1.57,0-2.4.02-4.8.02-7.2Z"/>
    </g>
  </g>
</svg>