<?xml version="1.0" encoding="UTF-8"?>
<svg id="Layer_1" xmlns="http://www.w3.org/2000/svg" viewBox="0 0 20 20">
  <defs>
    <style>
      .cls-1 {
        fill: #f2efff;
      }

      .cls-2 {
        fill: #6b46f2;
      }
    </style>
  </defs>
  <rect class="cls-1" x="-.14" y="-.14" width="20.28" height="20.28" rx="4.61" ry="4.61"/>
  <g>
    <path class="cls-2" d="M14.25,15.45H4.29c-.39,0-.76-.1-1.06-.3l-.03-.02c-.74-.49-1.17-1.37-1.15-2.34.02-.88.3-1.56.84-2,.68-.56,1.59-.58,2.02-.55.58-2.38,2.65-2.47,3.35-2.44.43-1.53,1.1-2.53,2-2.99.97-.49,1.82-.15,1.86-.14.13.05.2.2.14.34-.05.13-.2.2-.33.14h0s-.69-.26-1.45.13c-.8.41-1.4,1.38-1.78,2.87-.03.13-.16.21-.29.19-.1-.02-2.54-.39-3.04,2.24-.03.14-.16.23-.3.21-.01,0-1.13-.18-1.85.41-.41.34-.63.88-.65,1.61-.02.8.33,1.51.93,1.91.24.15.51.23.8.23h9.95c1.03,0,1.95-.47,2.47-1.27.29-.44.43-.93.43-1.47,0-.14.12-.26.26-.26s.26.12.26.26c0,.64-.17,1.23-.51,1.75-.61.94-1.7,1.5-2.9,1.5Z"/>
    <path class="cls-2" d="M10.02,8.91c.09-.85.47-1.62,1.04-2.2l.64.64.3-.3-.63-.63c.6-.5,1.36-.81,2.19-.86v1.04h.42v-1.04c.83.05,1.59.36,2.19.86l-.6.6.3.3.61-.61c.57.58.94,1.35,1.04,2.2h-.88v.42h.9c0,.91-.32,1.74-.86,2.39l-.72-.72-.3.3.73.73h0s.29.3.29.3c.78-.76,1.27-1.83,1.27-3,0-2.31-1.87-4.18-4.18-4.18s-4.18,1.87-4.18,4.18c0,1.15.46,2.19,1.21,2.94l.3-.29h0s.63-.63.63-.63l-.3-.3-.61.61c-.51-.64-.81-1.45-.81-2.33h.85v-.42h-.82Z"/>
    <path class="cls-2" d="M14.37,11.14c-.08.03-.16.04-.24.01l-2.7-1.14c-.4-.12-.3-.54.11-.47l2.93.17c.08.01.16.05.21.12l.36.5c.06.22.03.32-.12.52l-.54.29h0Z"/>
  </g>
</svg>