<?xml version="1.0" encoding="UTF-8"?>
<svg id="Layer_1" xmlns="http://www.w3.org/2000/svg" viewBox="0 0 20 20">
  <defs>
    <style>
      .cls-1 {
        font-family: Raleway-Bold, Raleway;
        font-size: 2.69px;
        font-weight: 700;
        isolation: isolate;
      }

      .cls-1, .cls-2 {
        fill: #6b46f2;
      }

      .cls-3 {
        fill: #f2efff;
      }
    </style>
  </defs>
  <rect class="cls-3" x="-.08" y="-.14" width="20.28" height="20.28" rx="4.61" ry="4.61"/>
  <g>
    <path class="cls-2" d="M4.62,15.09h-.77c-.57,0-1.03-.46-1.03-1.03v-2.05c0-.57.46-1.03,1.03-1.03h.77c.14,0,.26.12.26.26v3.59c0,.14-.12.26-.26.26h0ZM3.85,11.5c-.28,0-.51.23-.51.51v2.05c0,.28.23.51.51.51h.51v-3.08h-.51Z"/>
    <path class="cls-2" d="M5.39,15.87c-.57,0-1.03-.46-1.03-1.03v-3.59c0-.57.46-1.03,1.03-1.03s1.03.46,1.03,1.03v3.59c0,.57-.46,1.03-1.03,1.03ZM5.39,10.74c-.28,0-.51.23-.51.51v3.59c0,.28.23.51.51.51s.51-.23.51-.51v-3.59c0-.28-.23-.51-.51-.51ZM16.15,15.09h-.77c-.14,0-.26-.12-.26-.26v-3.59c0-.14.12-.26.26-.26h.77c.57,0,1.03.46,1.03,1.03v2.05c0,.57-.46,1.03-1.03,1.03h0ZM15.64,14.58h.51c.28,0,.51-.23.51-.51v-2.05c0-.28-.23-.51-.51-.51h-.51v3.08h0ZM5.39,16.01c-.57,0-1.03-.46-1.03-1.03v-3.59c0-.57.46-1.03,1.03-1.03s1.03.46,1.03,1.03v3.59c0,.57-.46,1.03-1.03,1.03Z"/>
    <path class="cls-2" d="M14.61,15.87c-.57,0-1.03-.46-1.03-1.03v-3.59c0-.57.46-1.03,1.03-1.03s1.03.46,1.03,1.03v3.59c0,.57-.46,1.03-1.03,1.03ZM14.61,10.74c-.28,0-.51.23-.51.51v3.59c0,.28.23.51.51.51s.51-.23.51-.51v-3.59c0-.28-.23-.51-.51-.51ZM10.51,17.66h-1.03c-.42,0-.77-.34-.77-.77s.34-.77.77-.77h1.03c.42,0,.77.34.77.77s-.34.77-.77.77ZM9.49,16.64c-.14,0-.26.12-.26.26s.12.26.26.26h1.03c.14,0,.26-.12.26-.26s-.12-.26-.26-.26h-1.03ZM14.61,15.86c-.57,0-1.03-.46-1.03-1.03v-3.59c0-.57.46-1.03,1.03-1.03s1.03.46,1.03,1.03v3.59c0,.57-.46,1.03-1.03,1.03ZM10.52,17.66h-1.03c-.42,0-.77-.34-.77-.77s.34-.77.77-.77h1.03c.42,0,.77.34.77.77s-.34.77-.77.77Z"/>
    <path class="cls-2" d="M14.61,17.15h-3.59c-.14,0-.26-.11-.26-.25s.12-.25.26-.25h3.59c.71,0,1.28-.55,1.28-1.24v-.5c0-.14.12-.25.26-.25s.26.11.26.25v.5c0,.96-.8,1.73-1.79,1.73h0ZM15.9,11.11c-.14,0-.26-.12-.26-.28v-1.92c0-.27-.02-.53-.05-.79-.02-.15.08-.29.22-.31.14-.02.27.09.29.24.03.29.05.57.05.86v1.92c0,.15-.12.28-.26.28h0ZM4.11,11.11c-.14,0-.26-.12-.26-.28v-1.92c0-.29.02-.58.06-.86.02-.15.15-.26.29-.24.14.02.24.16.22.31h0c-.03.26-.05.52-.06.79v1.92c0,.15-.12.28-.26.28h0Z"/>
    <path class="cls-2" d="M15.85,7.97c-.81-.01-1.54-.5-1.86-1.24-.97-2.2-3.54-3.2-5.74-2.23-1.01.44-1.81,1.26-2.25,2.27-.29.72-.99,1.19-1.76,1.2h-.08c-.14,0-.26-.11-.26-.25v-.03c.45-3.37,3.54-5.73,6.91-5.29,2.75.37,4.92,2.53,5.29,5.29.02.14-.08.27-.22.29h-.03.01,0ZM10,2.84c-2.71,0-5.04,1.93-5.54,4.6.48-.09.88-.42,1.06-.87,1.05-2.48,3.91-3.63,6.39-2.57.57.24,1.1.6,1.54,1.04.43.43.78.93,1.03,1.48.2.46.6.79,1.08.9-.21-1.11-.76-2.13-1.55-2.93-1.06-1.06-2.5-1.66-4-1.65h0ZM15.97,7.97c-.81-.01-1.54-.5-1.86-1.24-.97-2.2-3.54-3.2-5.74-2.23-1.01.44-1.81,1.26-2.25,2.27-.29.72-.99,1.19-1.76,1.2h-.08c-.14,0-.26-.11-.26-.25v-.03c.45-3.37,3.54-5.73,6.91-5.29,2.75.37,4.92,2.53,5.29,5.29.02.14-.08.27-.22.29h-.03.01,0Z"/>
    <text class="cls-1" transform="translate(8.33 9.68)"><tspan x="0" y="0">24</tspan></text>
    <g>
      <path class="cls-2" d="M12.38,9.98s-.02,0-.03,0c-.05-.02-.08-.08-.06-.13h0c.05-.13.08-.25.1-.38.01-.05.06-.09.12-.08s.09.06.08.12h0c-.03.14-.06.28-.11.41-.01.04-.05.07-.09.07h0Z"/>
      <path class="cls-2" d="M11.75,10.97c-.06,0-.1-.05-.1-.1,0-.02.01-.05.03-.07.12-.12.22-.24.31-.38.03-.05.09-.06.14-.03s.06.09.03.14c-.1.15-.21.29-.34.41-.02.02-.05.03-.07.03h0Z"/>
      <path class="cls-2" d="M12.18,6.71s-.08-.01-.11.01l-.29.25c-1.11-1.06-2.87-1.03-3.93.08-1.06,1.11-1.03,2.87.08,3.93.88.84,2.2,1.02,3.27.43.05-.03.07-.09.04-.14s-.09-.07-.14-.04c-1.25.69-2.82.23-3.51-1.02-.69-1.25-.23-2.82,1.02-3.51.99-.54,2.21-.38,3.03.39l-.35.31s-.05.1-.01.14c.02.02.05.03.07.03h.8c.06,0,.1-.05.1-.1v-.69s-.02-.07-.06-.09h0Z"/>
      <path class="cls-2" d="M12.53,8.98c-.05,0-.1-.04-.1-.09,0-.13-.02-.25-.04-.38-.01-.05.02-.1.08-.12.05-.01.1.02.12.08.03.14.04.28.05.41,0,.06-.04.1-.09.1h-.01Z"/>
    </g>
  </g>
</svg>